<?xml version="1.0" encoding="UTF-8"?>
<svg width="20px" height="18px" viewBox="0 0 20 18" version="1.1" xmlns="http://www.w3.org/2000/svg" xmlns:xlink="http://www.w3.org/1999/xlink">
    <!-- Generator: Sketch 52.3 (67297) - http://www.bohemiancoding.com/sketch -->
    <title>why-join</title>
    <desc>Created with Sketch.</desc>
    <g id="Page-1" stroke="none" stroke-width="1" fill="none" fill-rule="evenodd">
        <g id="Homepage" transform="translate(-1740.000000, -1671.000000)" fill="#FFFFFF">
            <g id="Group-16" transform="translate(1720.000000, 1430.000000)">
                <g id="Group-15" transform="translate(0.000000, 200.000000)">
                    <g id="why-join" transform="translate(20.000000, 41.000000)">
                        <path d="M19.8009978,6.5433465 C19.6699849,6.31302511 19.4818511,6.12132748 19.2552089,5.9872185 L18.4444444,5.50894275 L18.4444444,1.6687125 C18.4393085,0.774455684 17.7202484,0.0531408577 16.8370222,0.05625 L3.16297778,0.05625 C2.27975158,0.0531408577 1.56069145,0.774455684 1.55555556,1.6687125 L1.55555556,5.50895625 L0.743924444,5.98775625 C0.283133867,6.25989149 -0.000153117475,6.75941801 4.65800238e-14,7.2995355 L4.65800238e-14,16.425 C0.000941740097,17.2633872 0.67196327,17.9427965 1.5,17.94375 L18.5,17.94375 C19.3280367,17.9427965 19.9990583,17.2633872 20,16.425 L20,7.2995355 C19.9996784,7.03424803 19.9310912,6.7736235 19.8009978,6.5433465 Z M6.93516667,11.9580143 L1.11111111,16.2064823 L1.11111111,7.83040725 L6.93516667,11.9580143 Z M7.93478667,12.6152033 C9.23034541,13.2924873 10.7696503,13.2924924 12.0652133,12.6152168 L17.8276911,16.81875 L2.17230889,16.81875 L7.93478667,12.6152033 Z M13.0647244,11.9579445 L18.8888889,7.83032625 L18.8888889,16.2064823 L13.0647244,11.9579445 Z M3.16297778,1.18125 L16.8370222,1.18125 C17.1068804,1.17745452 17.3288758,1.39549201 17.3333333,1.6687125 L17.3333333,7.55946 L11.9394533,11.382165 C11.8949644,11.4136965 11.85026,11.4439095 11.8046867,11.4731325 C10.7008941,12.1745178 9.29798704,12.1742616 8.19444444,11.4724733 C8.14887111,11.4434685 8.1046,11.413476 8.06098,11.382606 L2.66666667,7.55955 L2.66666667,1.6687125 C2.67112421,1.39549201 2.8931196,1.17745452 3.16297778,1.18125 Z" id="Shape" fill-rule="nonzero"></path>
                        <rect id="Rectangle" x="5.39822" y="3.61318275" width="9.20356" height="1.125"></rect>
                        <rect id="Rectangle" x="5.39822" y="6.48193275" width="9.20356" height="1.125"></rect>
                    </g>
                </g>
            </g>
        </g>
    </g>
</svg>