<?xml version="1.0" encoding="UTF-8"?>
<svg width="20px" height="20px" viewBox="0 0 20 20" version="1.1" xmlns="http://www.w3.org/2000/svg" xmlns:xlink="http://www.w3.org/1999/xlink">
    <!-- Generator: Sketch 52.3 (67297) - http://www.bohemiancoding.com/sketch -->
    <title>why-profile</title>
    <desc>Created with Sketch.</desc>
    <g id="Page-1" stroke="none" stroke-width="1" fill="none" fill-rule="evenodd">
        <g id="Homepage" transform="translate(-1740.000000, -1470.000000)" fill="#FFFFFF" fill-rule="nonzero">
            <g id="Group-16" transform="translate(1720.000000, 1430.000000)">
                <g id="Group-15">
                    <path d="M20.7214114,40.0011828 C20.3071355,39.9790641 20,40.26896 20,40.7209811 L20,56.5758399 C20,57.0923347 20.4052284,57.6144767 20.9078355,57.7462476 L29.524297,60 L29.524297,59.0693683 L29.524297,43.2215686 L29.524297,42.2909369 L20.9078355,40.02989 C20.8449799,40.0134186 20.7809338,40.0040064 20.7218876,40.0007121 M39.2781124,40.0007121 C39.2188281,40.0037711 39.1550201,40.0131833 39.0921645,40.02989 L30.475703,42.2909369 L30.475703,43.2215686 L30.475703,59.0693683 L30.475703,60 L39.0921645,57.7462476 C39.5947716,57.6144767 40,57.0923347 40,56.5758399 L40,40.7209811 C40,40.26896 39.6923883,39.9792994 39.2785886,40.0011828 M21.9054308,43.0836798 L27.6195805,44.588456 L27.6195805,49.2484386 L21.9054308,47.7507215 L21.9054308,43.0834445 M38.0955215,43.0834445 L38.0955215,44.0213707 L32.3813719,45.5190878 L32.3813719,44.588456 L38.0955215,43.0836798 M38.0955215,46.8132659 L38.0955215,47.7511921 L32.3813719,49.2489092 L32.3813719,48.3182774 L38.0955215,46.8132659 M21.9054308,50.542852 L27.6195805,52.0478636 L27.6195805,52.9784953 L21.9054308,51.4807782 L21.9054308,50.542852 M38.0955215,50.542852 L38.0955215,51.4807782 L32.3813719,52.9784953 L32.3813719,52.0478636 L38.0955215,50.542852 M21.9054308,54.2797326 L27.6195805,55.7774497 L27.6195805,56.7080814 L21.9054308,55.2103643 L21.9054308,54.2797326 M38.0955215,54.2797326 L38.0955215,55.2103643 L32.3813719,56.7080814 L32.3813719,55.7774497 L38.0955215,54.2797326" id="why-profile"></path>
                </g>
            </g>
        </g>
    </g>
</svg>