<?xml version="1.0" encoding="UTF-8"?>
<svg width="20px" height="22px" viewBox="0 0 20 22" version="1.1" xmlns="http://www.w3.org/2000/svg" xmlns:xlink="http://www.w3.org/1999/xlink">
    <!-- Generator: Sketch 52.3 (67297) - http://www.bohemiancoding.com/sketch -->
    <title>why-license</title>
    <desc>Created with Sketch.</desc>
    <g id="Page-1" stroke="none" stroke-width="1" fill="none" fill-rule="evenodd">
        <g id="Homepage" transform="translate(-1740.000000, -1569.000000)" fill="#FFFFFF">
            <g id="Group-16" transform="translate(1720.000000, 1430.000000)">
                <g id="Group-15" transform="translate(0.000000, 100.000000)">
                    <g id="why-license" transform="translate(20.000000, 39.000000)">
                        <path d="M19,0.9 L5,0.9 C4.4,0.9 4,1.3 4,1.9 L4,6 C1.7,6.5 0,8.5 0,10.9 C0,12.5 0.8,14 2,14.9 L2,20 C2,20.4 2.2,20.8 2.6,20.9 C3,21.1 3.4,21 3.7,20.7 L5,19.5 L6.3,20.8 C6.6,21.1 7,21.1 7.4,21 C7.8,20.8 8,20.5 8,20.1 L8,18 L19,18 C19.6,18 20,17.6 20,17 L20,2 C20,1.4 19.6,0.9 19,0.9 Z M5,7.9 C6.7,7.9 8,9.2 8,10.9 C8,14.9 2,14.9 2,10.9 C2,9.3 3.3,7.9 5,7.9 Z M6,17.7 L5.7,17.4 C5.3,17 4.7,17 4.3,17.4 L4,17.7 L4,15.9 C4.2,15.9 4.7,16 5,16 C5.3,16 5.8,15.9 6,15.9 L6,17.7 Z M18,15.9 L8,15.9 L8,14.9 C9.2,14 10,12.5 10,10.9 C10,8.5 8.3,6.5 6,6 L6,2.9 L18,2.9 L18,15.9 Z" id="Shape" fill-rule="nonzero"></path>
                        <path d="M9,5.9 L15,5.9 C15.6,5.9 16,5.5 16,4.9 C16,4.3 15.6,3.9 15,3.9 L9,3.9 C8.4,3.9 8,4.3 8,4.9 C8,5.5 8.4,5.9 9,5.9 Z" id="Path"></path>
                        <path d="M15,7.9 L12,7.9 C11.4,7.9 11,8.3 11,8.9 C11,9.5 11.4,9.9 12,9.9 L15,9.9 C15.6,9.9 16,9.5 16,8.9 C16,8.3 15.5,7.9 15,7.9 Z" id="Path"></path>
                        <path d="M15,12.1 L12,12.1 C11.4,12.1 11,12.5 11,13.1 C11,13.7 11.4,14.1 12,14.1 L15,14.1 C15.6,14.1 16,13.7 16,13.1 C16,12.5 15.5,12.1 15,12.1 Z" id="Path"></path>
                    </g>
                </g>
            </g>
        </g>
    </g>
</svg>