<?xml version="1.0" encoding="UTF-8"?>
<svg width="20px" height="20px" viewBox="0 0 20 20" version="1.1" xmlns="http://www.w3.org/2000/svg" xmlns:xlink="http://www.w3.org/1999/xlink">
    <!-- Generator: Sketch 52.3 (67297) - http://www.bohemiancoding.com/sketch -->
    <title>why-xxx</title>
    <desc>Created with Sketch.</desc>
    <g id="Page-1" stroke="none" stroke-width="1" fill="none" fill-rule="evenodd">
        <g id="Homepage" transform="translate(-1740.000000, -1670.000000)" fill="#FFFFFF">
            <g id="Group-16" transform="translate(1720.000000, 1430.000000)">
                <g id="Group-15" transform="translate(0.000000, 200.000000)">
                    <path d="M30.8662631,52.5512183 C30.8662631,52.8168479 30.7541082,53.0529631 30.5770215,53.2457906 C30.3979672,53.438618 30.1343048,53.5212584 29.8804806,53.5330641 C29.6345269,53.5448699 29.3551235,53.4169741 29.1839397,53.2457906 C29.006853,53.0667365 28.8966658,52.8011069 28.8966658,52.5492506 C28.8966658,52.4134844 28.8966658,52.2796857 28.8966658,52.1439195 C28.8966658,51.7346531 28.8769895,51.3273543 28.9517594,50.9239907 C28.991112,50.7173899 29.0796553,50.5127567 29.1800044,50.3297674 C29.2508391,50.199904 29.347253,50.0857817 29.4377639,49.9716593 C29.4810518,49.920501 29.5263073,49.8693427 29.575498,49.8240873 C29.7270055,49.6843857 29.9001569,49.5505871 30.091017,49.4640115 C30.2897476,49.3754683 30.4963487,49.3125042 30.6970469,49.2278963 C30.6203094,49.2593783 30.5416042,49.292828 30.462899,49.3262776 C30.6773706,49.2337992 30.8780688,49.1157415 31.0649937,48.9740724 C30.9980943,49.0252307 30.9331625,49.076389 30.8662631,49.1275473 C31.0649937,48.9740724 31.244048,48.7950184 31.3975231,48.596288 C31.3463647,48.6631873 31.2952063,48.728119 31.244048,48.7950184 C31.3935878,48.6002233 31.5175485,48.3877196 31.6139623,48.1614425 C31.5824803,48.2381799 31.5490306,48.316885 31.5155809,48.3955901 C31.61593,48.153572 31.684797,47.9017157 31.722182,47.6419889 C31.7103762,47.7285645 31.6985704,47.8171077 31.6867646,47.9036833 C31.7202143,47.6400213 31.722182,47.3743917 31.6887323,47.1107297 C31.700538,47.1973052 31.7123438,47.2858485 31.7241496,47.372424 C31.6906999,47.1146649 31.6218329,46.8628087 31.5234514,46.6227582 C31.5549335,46.6994956 31.5883832,46.7782007 31.6218329,46.8569058 C31.5234514,46.6227582 31.3955554,46.4043516 31.2420803,46.201686 C31.2932387,46.2685853 31.3443971,46.333517 31.3955554,46.4004163 C31.2420803,46.201686 31.0669613,46.0245996 30.8682307,45.8711247 C30.9351301,45.922283 31.0000619,45.9734413 31.0669613,46.0245996 C30.8741336,45.8789952 30.6655648,45.7570023 30.4432227,45.6625562 C30.5199602,45.6940382 30.5986654,45.7274879 30.6773706,45.7609375 C30.4589637,45.6704267 30.2307187,45.6074626 29.9965708,45.574013 C30.0831465,45.5858187 30.1716898,45.5976245 30.2582655,45.6094303 C30.0083765,45.5759806 29.7565199,45.5759806 29.506631,45.6094303 C29.5932067,45.5976245 29.68175,45.5858187 29.7683257,45.574013 C29.5263073,45.6094303 29.2921593,45.674362 29.0658819,45.7688081 C29.1426195,45.737326 29.2213247,45.7038764 29.3000298,45.6704267 C29.0796553,45.7668404 28.8730542,45.8888333 28.6821941,46.0344377 C28.7490935,45.9832794 28.8140253,45.9321211 28.8809247,45.8809628 C28.6920323,46.0305024 28.5228161,46.1997184 28.3752439,46.3886106 C28.4264023,46.3217112 28.4775606,46.2567795 28.528719,46.1898802 C28.3752439,46.3886106 28.2493156,46.6050495 28.1489665,46.8372295 C28.1804486,46.7604921 28.2138983,46.681787 28.247348,46.6030819 C28.1489665,46.8411648 28.0800995,47.0910534 28.0427145,47.3468449 C28.0545203,47.2602693 28.066326,47.1717261 28.0781318,47.0851505 C28.0604232,47.2228844 28.050585,47.3606183 28.050585,47.4983522 C28.0486174,48.0492877 27.6019654,48.4585541 27.0667702,48.4821657 C26.8208165,48.4939714 26.541413,48.3660757 26.3702293,48.1948921 C26.1931426,48.0158381 26.0809877,47.7502084 26.0829553,47.4983522 C26.084923,46.8451 26.2482362,46.2095565 26.5512512,45.6310742 C26.8385251,45.0801386 27.2714037,44.6354549 27.7711816,44.2753792 C27.9384301,44.1553539 28.1174844,44.055005 28.3063769,43.9723646 C28.5700392,43.8582423 28.8297664,43.753958 29.113105,43.7008321 C29.6955234,43.5926126 30.2818771,43.5926126 30.8564249,43.7480551 C31.8756571,44.0235229 32.7945401,44.7672859 33.2569331,45.7176498 C33.5166602,46.2548119 33.6642325,46.813618 33.6819411,47.4117766 C33.6917793,47.7187264 33.6524267,48.0296115 33.5933978,48.3306584 C33.5363365,48.6258024 33.4261493,48.9012702 33.3041562,49.176738 C33.1014904,49.6351951 32.7827344,50.0661054 32.4049495,50.3966667 C32.1885102,50.5875265 31.9543623,50.7665806 31.700538,50.9043145 C31.4329404,51.0518865 31.1436988,51.1404297 30.8642954,51.2545521 C30.941033,51.22307 31.0197382,51.1896204 31.0984434,51.1561707 C31.0059648,51.1974909 30.9213567,51.2466816 30.8406839,51.307678 C30.9075833,51.2565197 30.9725151,51.2053614 31.0394145,51.1542031 C30.9626769,51.2151995 30.8918423,51.2840665 30.8308457,51.3627716 C30.8820041,51.2958722 30.9331625,51.2309406 30.9843208,51.1640412 C30.9193891,51.2525845 30.8662631,51.3450629 30.8229752,51.4454119 C30.8544573,51.3686744 30.887907,51.2899694 30.9213567,51.2112643 C30.8839717,51.3057104 30.8583925,51.4040917 30.8426515,51.5044407 C30.8544573,51.4178651 30.8662631,51.3293219 30.8780688,51.2427463 C30.8485544,51.4670558 30.8662631,51.6992358 30.8662631,51.9235453 C30.8662631,52.1321137 30.8662631,52.3426498 30.8662631,52.5512183 Z M38.0323703,50.0011737 L39.9980324,49.9992061 C39.9980324,50.5501416 39.9409711,51.0951743 39.8583307,51.6382393 C39.7048555,52.6377938 39.3742938,53.6038987 38.9237066,54.5090071 C38.4849252,55.3924716 37.8946363,56.2110044 37.2138364,56.9232854 C36.5350041,57.6355664 35.7361465,58.2534013 34.8762923,58.7315346 C34.0006971,59.2195061 33.0424615,59.5874523 32.0606143,59.7861827 C31.0374468,59.9927835 29.9827973,60.0616504 28.9438889,59.9396576 C28.3929526,59.8747259 27.8479191,59.784215 27.3146915,59.636643 C26.7932696,59.4910386 26.2895564,59.2942759 25.7956814,59.0719341 C24.8925394,58.6626677 24.0621997,58.0999263 23.3223709,57.4427389 C22.5864774,56.7894868 21.9469978,56.0103065 21.4373817,55.1701298 C20.9198951,54.3181473 20.5263691,53.3717187 20.2902536,52.4016786 C20.0462675,51.3942536 19.947886,50.3337027 20.0265912,49.2987309 C20.1052964,48.2775325 20.3178004,47.2681398 20.7073911,46.3217112 C20.9100569,45.8239016 21.1343667,45.3378977 21.4137701,44.8735378 C21.6892383,44.4131131 22.0099619,43.9802351 22.3503618,43.5670335 C22.9780357,42.8075294 23.7355731,42.1523097 24.5580423,41.6112122 C25.3903497,41.0642119 26.3210385,40.647075 27.2792742,40.3755425 C28.2729272,40.0941718 29.3275767,39.9662761 30.3605822,40.0075963 C31.3837497,40.0489164 32.41282,40.2338734 33.3749909,40.5880462 C34.3115826,40.9343486 35.1989836,41.3947733 35.9919384,42.00277 C36.4149787,42.3254608 36.8203105,42.6658603 37.1902248,43.0495476 C37.5581716,43.4312672 37.8926686,43.8464365 38.1996189,44.2793144 C38.7761343,45.0899767 39.218851,46.0029557 39.5258012,46.9493842 C39.8425896,47.9292625 39.9980324,48.9721048 40,50.0011737 L38.0323703,50.0011737 C38.0153175,49.4646674 37.9890825,49.0639274 37.9536651,48.7989536 C37.9654709,48.8855292 37.9772767,48.9740724 37.9890825,49.060648 C37.8828305,48.2696619 37.6722941,47.4963845 37.3633762,46.7604921 C37.3948583,46.8372295 37.428308,46.9159346 37.4617577,46.9946397 C37.1567751,46.2764558 36.7612816,45.6015598 36.2851152,44.9837249 C36.3362736,45.0506242 36.3874319,45.1155559 36.4385903,45.1824552 C35.9683268,44.5764261 35.425261,44.0333611 34.8192311,43.5630982 C34.8861305,43.6142565 34.9510623,43.6654148 35.0179617,43.7165731 C34.400126,43.2404074 33.725229,42.8449144 33.0070441,42.5399322 C33.0837817,42.5714142 33.1624869,42.6048639 33.2411921,42.6383135 C32.5052986,42.3293961 31.7320201,42.11886 30.941033,42.0126081 C31.0276087,42.0244139 31.116152,42.0362197 31.2027277,42.0480254 C30.4038701,41.9437412 29.5951743,41.9437412 28.7963167,42.0480254 C28.8828924,42.0362197 28.9714357,42.0244139 29.0580114,42.0126081 C28.2670243,42.11886 27.4937458,42.3293961 26.7578523,42.6383135 C26.8345899,42.6068315 26.9132951,42.5733818 26.9920002,42.5399322 C26.2738154,42.8449144 25.5989184,43.2404074 24.9810827,43.7165731 C25.0479821,43.6654148 25.1129139,43.6142565 25.1798133,43.5630982 C24.5737834,44.0333611 24.0307176,44.5764261 23.5604541,45.1824552 C23.6116125,45.1155559 23.6627708,45.0506242 23.7139292,44.9837249 C23.2377628,45.6015598 22.8422693,46.2764558 22.5372867,46.9946397 C22.5687687,46.9179022 22.6022184,46.8391971 22.6356681,46.7604921 C22.3267503,47.4963845 22.1162139,48.2696619 22.0099619,49.060648 C22.0217677,48.9740724 22.0335735,48.8855292 22.0453792,48.7989536 C21.9410949,49.5978102 21.9410949,50.4065048 22.0453792,51.2053614 C22.0335735,51.1187858 22.0217677,51.0302426 22.0099619,50.943667 C22.1162139,51.7346531 22.3267503,52.5079305 22.6356681,53.243823 C22.6041861,53.1670855 22.5707364,53.0883804 22.5372867,53.0096753 C22.8422693,53.7278592 23.2377628,54.4027552 23.7139292,55.0205901 C23.6627708,54.9536908 23.6116125,54.8887591 23.5604541,54.8218598 C24.0307176,55.4278889 24.5737834,55.970954 25.1798133,56.4412168 C25.1129139,56.3900585 25.0479821,56.3389002 24.9810827,56.2877419 C25.5989184,56.7639076 26.2738154,57.1594007 26.9920002,57.4643828 C26.9152627,57.4329008 26.8365575,57.3994511 26.7578523,57.3660015 C27.4937458,57.6749189 28.2670243,57.885455 29.0580114,57.9917069 C28.9714357,57.9799011 28.8828924,57.9680953 28.7963167,57.9562896 C29.5951743,58.0605738 30.4038701,58.0605738 31.2027277,57.9562896 C31.116152,57.9680953 31.0276087,57.9799011 30.941033,57.9917069 C31.7320201,57.885455 32.5052986,57.6749189 33.2411921,57.3660015 C33.1644545,57.3974835 33.0857493,57.4309332 33.0070441,57.4643828 C33.725229,57.1594007 34.400126,56.7639076 35.0179617,56.2877419 C34.9510623,56.3389002 34.8861305,56.3900585 34.8192311,56.4412168 C35.425261,55.970954 35.9683268,55.4278889 36.4385903,54.8218598 C36.3874319,54.8887591 36.3362736,54.9536908 36.2851152,55.0205901 C36.7612816,54.4027552 37.1567751,53.7278592 37.4617577,53.0096753 C37.4302756,53.0864128 37.3968259,53.1651179 37.3633762,53.243823 C37.6722941,52.5079305 37.8828305,51.7346531 37.9890825,50.943667 C37.9772767,51.0302426 37.9654709,51.1187858 37.9536651,51.2053614 C38.0048235,50.8059331 38.0323703,50.4045372 38.0323703,50.0011737 Z M28.9202773,55.3570543 C28.9202773,55.1799679 28.9655328,55.0146872 29.0540761,54.86318 C29.1052345,54.7962806 29.1563929,54.731349 29.2075513,54.6644496 C29.3315119,54.5424568 29.4751489,54.4578488 29.6423974,54.4106258 C29.7289731,54.39882 29.8175165,54.3870142 29.9040922,54.3752085 C30.0398586,54.3693056 30.1657869,54.39882 30.2838447,54.4598164 C30.4058377,54.499169 30.5120897,54.5660683 30.6006331,54.662482 C30.6950793,54.7510252 30.7639463,54.8572771 30.8032989,54.97927 C30.8642954,55.0973276 30.8938099,55.2232557 30.887907,55.359022 C30.8741336,55.5990725 30.872166,55.5793962 30.8013313,55.7486121 C30.765914,55.8332201 30.7718168,55.8312524 30.7482053,55.870605 C30.6970469,55.9375043 30.6458885,56.002436 30.5947302,56.0693353 C30.5947302,56.0693353 30.5927625,56.0713029 30.5927625,56.0713029 C30.5868597,56.0752382 30.3959996,56.2228102 30.3900967,56.2267455 C30.3527117,56.2464217 30.2897476,56.2680656 30.2681036,56.2779038 C30.1461106,56.3290621 30.1913661,56.3172563 30.1461106,56.3290621 C30.0595349,56.3408678 29.9709916,56.3526736 29.8844159,56.3644793 C29.8824482,56.3644793 29.8824482,56.3644793 29.8804806,56.3644793 C29.8706425,56.3644793 29.6227211,56.3310297 29.6148506,56.3290621 C29.6010772,56.3251268 29.3885732,56.234616 29.3767674,56.2287131 C29.3747998,56.2267455 29.3728321,56.2267455 29.3708645,56.2247778 C29.3610264,56.2169073 29.1780368,56.0772058 29.1701663,56.0693353 C29.1426195,56.0358856 29.1150727,56.002436 29.0914611,55.9670187 C29.0639143,55.933569 29.0363675,55.9001194 29.0127559,55.8647021 C29.0107883,55.8647021 29.0107883,55.8627345 29.0107883,55.8627345 C28.9793062,55.785997 28.9458565,55.7072919 28.9124068,55.6285869 C28.9124068,55.6246516 28.9104392,55.622684 28.9104392,55.6207164 C28.8986334,55.5341408 28.8868276,55.4455975 28.8750218,55.359022 C28.8750218,55.359022 28.8750218,55.3570543 28.8750218,55.3570543 C28.8750218,55.3472162 28.9084715,55.1012628 28.9104392,55.0914247 C28.9104392,55.0894571 28.9124068,55.0874894 28.9124068,55.0855218 C28.9675004,54.9202411 29.0383351,54.7647986 29.1701663,54.6447734 C29.1800044,54.6369029 29.362994,54.4952337 29.3728321,54.4893308 C29.3747998,54.4893308 29.3767674,54.4873632 29.378735,54.4873632 C29.5499188,54.39882 29.6856853,54.3515969 29.8824482,54.3515969 C29.9709916,54.3515969 30.0634702,54.3594675 30.1480782,54.3870142 C30.1500459,54.3870142 30.1500459,54.3870142 30.1520135,54.3870142 C30.2287511,54.4184963 30.3074562,54.4519459 30.3861614,54.4853956 C30.462899,54.5247481 30.531766,54.5837769 30.5927625,54.6447734 C30.728529,54.7825073 30.7895255,54.9045001 30.850522,55.0855218 C30.850522,55.0874894 30.8524897,55.0894571 30.8524897,55.0914247 C30.8603602,55.1347125 30.8662631,55.1799679 30.8701983,55.2232557 C30.8800365,55.2685111 30.8859394,55.3117989 30.887907,55.3570543 C30.887907,55.5341408 30.8426515,55.6994214 30.7541082,55.8528963 C30.7029498,55.9197957 30.6517914,55.9847273 30.6006331,56.0516267 C30.4766724,56.1736195 30.3330354,56.2582275 30.1657869,56.3054505 C30.0792112,56.3172563 29.9906679,56.3290621 29.9040922,56.3408678 C29.7683257,56.3467707 29.6423974,56.3172563 29.5243396,56.2562599 C29.4023466,56.2169073 29.2960946,56.150008 29.2075513,56.0535943 C29.113105,55.9650511 29.044238,55.8587992 29.0048854,55.7368063 C28.9438889,55.6187487 28.9143744,55.4928206 28.9202773,55.3570543 C28.9202773,55.3570543 28.9202773,55.3550867 28.9202773,55.3531191 C28.9320831,55.4396947 28.9438889,55.5282379 28.9556947,55.6148135 C28.9556947,55.6108782 28.9556947,55.6089106 28.953727,55.606943 C28.9852091,55.6836804 29.0186588,55.7623855 29.0521085,55.8410906 C29.0521085,55.8391229 29.0521085,55.8391229 29.0501409,55.8371553 C29.1012992,55.9040546 29.1524576,55.9689863 29.203616,56.0358856 C29.2016484,56.033918 29.2016484,56.033918 29.1996807,56.0319504 C29.2665801,56.0831087 29.3315119,56.134267 29.3984113,56.1854253 C29.3964437,56.1834577 29.3944761,56.1834577 29.3925084,56.18149 C29.469246,56.2129721 29.5479512,56.2464217 29.6266564,56.2798714 C29.6266564,56.2779038 29.6246887,56.2779038 29.6227211,56.2779038 C29.7092968,56.2897095 29.7978402,56.3015153 29.8844159,56.313321 C29.8824482,56.313321 29.8804806,56.313321 29.878513,56.313321 C29.9650887,56.3015153 30.053632,56.2897095 30.1402077,56.2779038 C30.1402077,56.2798714 30.1382401,56.2798714 30.1362725,56.2798714 C30.21301,56.2483894 30.2917152,56.2149397 30.3704204,56.18149 C30.3684528,56.1834577 30.3664851,56.1834577 30.3645175,56.1854253 C30.4314169,56.134267 30.4963487,56.0831087 30.5632481,56.0319504 C30.5612805,56.033918 30.5612805,56.033918 30.5593128,56.0358856 C30.6104712,55.9689863 30.6616296,55.9040546 30.712788,55.8371553 C30.712788,55.8391229 30.7108203,55.8391229 30.7108203,55.8410906 C30.7423024,55.7643531 30.7757521,55.685648 30.8092018,55.606943 C30.8092018,55.6108782 30.8072342,55.6128458 30.8072342,55.6148135 C30.81904,55.5282379 30.8308457,55.4396947 30.8426515,55.3531191 C30.8426515,55.3550867 30.8426515,55.3570543 30.8426515,55.359022 C30.8308457,55.2724464 30.81904,55.1839032 30.8072342,55.0973276 C30.8072342,55.1012628 30.8072342,55.1032305 30.8092018,55.1051981 C30.7777197,55.0284606 30.74427,54.9497556 30.7108203,54.8710505 C30.7108203,54.8730181 30.7108203,54.8730181 30.712788,54.8749857 C30.6616296,54.8080864 30.6104712,54.7431547 30.5593128,54.6762554 C30.5612805,54.678223 30.5612805,54.678223 30.5632481,54.6801907 C30.4963487,54.6290324 30.4314169,54.5778741 30.3645175,54.5267157 C30.3664851,54.5286834 30.3684528,54.5286834 30.3704204,54.530651 C30.2936828,54.499169 30.2149776,54.4657193 30.1362725,54.4322697 C30.1362725,54.4342373 30.1382401,54.4342373 30.1402077,54.4342373 C30.053632,54.4224315 29.9650887,54.4106258 29.878513,54.39882 C29.8804806,54.39882 29.8824482,54.39882 29.8844159,54.39882 C29.7978402,54.4106258 29.7092968,54.4224315 29.6227211,54.4342373 C29.6227211,54.4322697 29.6246887,54.4322697 29.6266564,54.4322697 C29.5499188,54.4637517 29.4712136,54.4972013 29.3925084,54.530651 C29.3944761,54.5286834 29.3964437,54.5286834 29.3984113,54.5267157 C29.3315119,54.5778741 29.2665801,54.6290324 29.1996807,54.6801907 C29.2016484,54.678223 29.2016484,54.678223 29.203616,54.6762554 C29.1524576,54.7431547 29.1012992,54.8080864 29.0501409,54.8749857 C29.0501409,54.8730181 29.0521085,54.8730181 29.0521085,54.8710505 C29.0206264,54.9477879 28.9871767,55.026493 28.953727,55.1051981 C28.953727,55.1012628 28.9556947,55.0992952 28.9556947,55.0973276 C28.9438889,55.1839032 28.9320831,55.2724464 28.9202773,55.359022 C28.9202773,55.359022 28.9202773,55.3570543 28.9202773,55.3570543 Z" id="why-xxx"></path>
                </g>
            </g>
        </g>
    </g>
</svg>