<?xml version="1.0" encoding="UTF-8"?>
<svg width="32px" height="24px" viewBox="0 0 32 24" version="1.1" xmlns="http://www.w3.org/2000/svg" xmlns:xlink="http://www.w3.org/1999/xlink">
    <!-- Generator: Sketch 52.3 (67297) - http://www.bohemiancoding.com/sketch -->
    <title>i-why-5</title>
    <desc>Created with Sketch.</desc>
    <g id="Page-1" stroke="none" stroke-width="1" fill="none" fill-rule="evenodd">
        <g id="Homepage" transform="translate(-1003.000000, -1807.000000)" fill="#FFFFFF">
            <g id="Group-8" transform="translate(0.000000, 1080.000000)">
                <g id="Group-4" transform="translate(320.000000, 155.000000)">
                    <g id="3" transform="translate(663.000000, 549.000000)">
                        <g id="icon-copy">
                            <g id="i-why-5" transform="translate(20.000000, 23.000000)">
                                <path d="M27.8055153,13.9861082 C27.8055153,15.0798978 26.9131966,15.9722165 25.8194071,15.9722165 L7.93680629,15.9722165 L7.93680629,12 L-1.81188398e-13,17.9583247 L7.93680629,23.9166494 L7.93680629,19.9444329 L25.8194071,19.9444329 C29.1052245,19.9444329 31.7777318,17.2677946 31.7777318,13.9861082 L27.8055153,13.9861082 Z" id="Path" opacity="0.5"></path>
                                <path d="M5.95832471,7.94443295 L23.8332988,7.94443295 L23.8332988,11.9166494 L31.7777318,5.95832471 L23.8332988,1.59872116e-13 L23.8332988,3.97221647 L5.95832471,3.97221647 C2.67250724,3.97221647 -1.81188398e-13,6.64091039 -1.81188398e-13,9.93054118 L3.97221647,9.93054118 C3.97221647,8.83675166 4.86453518,7.94443295 5.95832471,7.94443295 Z" id="Path"></path>
                            </g>
                        </g>
                    </g>
                </g>
            </g>
        </g>
    </g>
</svg>