<?xml version="1.0" encoding="UTF-8"?>
<svg width="26px" height="23px" viewBox="0 0 26 23" version="1.1" xmlns="http://www.w3.org/2000/svg" xmlns:xlink="http://www.w3.org/1999/xlink">
    <!-- Generator: Sketch 52.3 (67297) - http://www.bohemiancoding.com/sketch -->
    <title>i-why-2</title>
    <desc>Created with Sketch.</desc>
    <g id="Page-1" stroke="none" stroke-width="1" fill="none" fill-rule="evenodd">
        <g id="Homepage" transform="translate(-342.000000, -1596.000000)" fill-rule="nonzero">
            <g id="Group-8" transform="translate(0.000000, 1080.000000)">
                <g id="Group-4" transform="translate(320.000000, 155.000000)">
                    <g id="1_2" transform="translate(0.000000, 337.000000)">
                        <g id="icon">
                            <g id="Group-6" transform="translate(22.000000, 24.000000)">
                                <g id="i-why-2">
                                    <path d="M1.81472081,20.2982198 C4.38832487,19.3756607 7.22588832,19.6721976 9.53553299,21.0889847 L12.3071066,22.8023088 C12.5215736,22.9341029 12.7607868,23 13,23 L13,3.23087665 C12.7607868,3.23087665 12.5215736,3.16497958 12.3071066,3.03318542 L9.50253807,1.3198614 C7.1928934,-0.0969257759 4.35532995,-0.393462626 1.81472081,0.529096463 L0.890862944,0.858581852 C0.362944162,1.05627309 0,1.55050117 0,2.11062633 L0,19.0461753 C0.0659898477,19.9687344 0.956852792,20.5947567 1.81472081,20.2982198 Z" id="Shape" fill="#FFFFFF"></path>
                                    <path d="M14.8147208,20.2982198 C17.3883249,19.3756607 20.2258883,19.6721976 22.535533,21.0889847 L25.3071066,22.8023088 C25.5215736,22.9341029 25.7607868,23 26,23 L26,3.23087665 C25.7607868,3.23087665 25.5215736,3.16497958 25.3071066,3.03318542 L22.5025381,1.3198614 C20.1928934,-0.0969257759 17.3553299,-0.393462626 14.8147208,0.529096463 L13.8908629,0.858581852 C13.3629442,1.05627309 13,1.55050117 13,2.11062633 L13,19.0461753 C13.0659898,19.9687344 13.9568528,20.5947567 14.8147208,20.2982198 Z" id="Shape" fill="#F8868C" opacity="0.900000036" transform="translate(19.500000, 11.500000) scale(-1, 1) translate(-19.500000, -11.500000) "></path>
                                </g>
                            </g>
                        </g>
                    </g>
                </g>
            </g>
        </g>
    </g>
</svg>