<?xml version="1.0" encoding="UTF-8"?>
<svg width="26px" height="23px" viewBox="0 0 26 23" version="1.1" xmlns="http://www.w3.org/2000/svg" xmlns:xlink="http://www.w3.org/1999/xlink">
    <!-- Generator: Sketch 52.3 (67297) - http://www.bohemiancoding.com/sketch -->
    <title>i-why-3</title>
    <desc>Created with Sketch.</desc>
    <g id="Page-1" stroke="none" stroke-width="1" fill="none" fill-rule="evenodd">
        <g id="Homepage" transform="translate(-1005.000000, -1596.000000)" fill-rule="nonzero">
            <g id="Group-8" transform="translate(0.000000, 1080.000000)">
                <g id="Group-4" transform="translate(320.000000, 155.000000)">
                    <g id="2" transform="translate(663.000000, 337.000000)">
                        <g id="icon">
                            <g id="i-why-3" transform="translate(22.000000, 24.000000)">
                                <path d="M24.375,0 L1.625,0 C0.729625,0 0,0.737642857 0,1.64285714 L0,18.0714286 C0,18.9782857 0.729625,19.7142857 1.625,19.7142857 L3.25,19.7142857 L3.25,22.1785714 C3.25,22.632 3.614,23 4.0625,23 L7.3125,23 C7.761,23 8.125,22.632 8.125,22.1785714 L8.125,19.7142857 L17.875,19.7142857 L17.875,22.1785714 C17.875,22.632 18.239,23 18.6875,23 L21.9375,23 C22.386,23 22.75,22.632 22.75,22.1785714 L22.75,19.7142857 L24.375,19.7142857 C25.272,19.7142857 26,18.9782857 26,18.0714286 L26,1.64285714 C26,0.737642857 25.272,0 24.375,0 Z" id="Shape" fill="#FFFFFF"></path>
                                <path d="M1.625,19.7142857 L3.25,19.7142857 L3.25,22.1785714 C3.25,22.632 3.614,23 4.0625,23 L7.3125,23 C7.761,23 8.125,22.632 8.125,22.1785714 L8.125,19.7142857 L17.875,19.7142857 L17.875,22.1785714 C17.875,22.632 18.239,23 18.6875,23 L21.9375,23 C22.386,23 22.75,22.632 22.75,22.1785714 L22.75,19.7142857 L24.375,19.7142857 C25.272,19.7142857 0.729625,19.7142857 1.625,19.7142857 Z" id="Shape" fill="#F79196"></path>
                                <path d="M6.5,13.9642857 C6.5,14.4177143 6.136,14.7857143 5.6875,14.7857143 C5.239,14.7857143 4.875,14.4177143 4.875,13.9642857 L4.875,5.75 C4.875,5.29657143 5.239,4.92857143 5.6875,4.92857143 C6.136,4.92857143 6.5,5.29657143 6.5,5.75 L6.5,13.9642857 Z" id="Path" fill="#F3323D"></path>
                                <path d="M20.856875,14.4867143 C20.852,14.4916429 20.850375,14.4982143 20.847125,14.5031429 C20.843875,14.5080714 20.83575,14.5097143 20.830875,14.513 C19.654375,15.6958571 18.035875,16.4285714 16.25,16.4285714 C14.467375,16.4285714 12.8505,15.6975 11.675625,14.5179286 C11.669125,14.5113571 11.659375,14.5097143 11.652875,14.5031429 C11.646375,14.4965714 11.64475,14.4867143 11.63825,14.4801429 C10.473125,13.2923571 9.75,11.6593571 9.75,9.85714286 C9.75,8.05821429 10.4715,6.42685714 11.635,5.23907143 C11.643125,5.23085714 11.64475,5.21935714 11.652875,5.21114286 C11.661,5.20292857 11.672375,5.19964286 11.682125,5.19142857 C12.857,4.01514286 14.470625,3.28571429 16.25,3.28571429 C18.032625,3.28571429 19.647875,4.01678571 20.82275,5.19471429 C20.82925,5.20128571 20.839,5.20292857 20.8455,5.2095 C20.852,5.21607143 20.853625,5.22428571 20.860125,5.23085714 C22.026875,6.42028571 22.75,8.05492857 22.75,9.85714286 C22.75,11.6626429 22.02525,13.2989286 20.856875,14.4867143 Z M19.696625,7.53414286 C19.537375,7.69514286 19.329375,7.774 19.121375,7.774 C18.913375,7.774 18.705375,7.6935 18.546125,7.53414286 C18.22925,7.21378571 18.22925,6.693 18.546125,6.37264286 L19.0645,5.84857143 C18.26825,5.27357143 17.301375,4.92857143 16.25,4.92857143 C15.198625,4.92857143 14.230125,5.27357143 13.433875,5.84857143 L13.95225,6.37264286 C14.269125,6.693 14.269125,7.21378571 13.95225,7.53414286 C13.793,7.69514286 13.585,7.774 13.377,7.774 C13.169,7.774 12.962625,7.69514286 12.803375,7.53414286 L12.285,7.01007143 C11.71625,7.81507143 11.375,8.79421429 11.375,9.85714286 C11.375,10.9200714 11.71625,11.8975714 12.285,12.7042143 L12.803375,12.1801429 C13.12025,11.8597857 13.635375,11.8597857 13.95225,12.1801429 C14.269125,12.5005 14.269125,13.0212857 13.95225,13.3416429 L13.433875,13.8657143 C14.230125,14.4407143 15.198625,14.7857143 16.25,14.7857143 C17.301375,14.7857143 18.269875,14.4407143 19.066125,13.8657143 L18.54775,13.3416429 C18.230875,13.0212857 18.230875,12.5005 18.54775,12.1801429 C18.864625,11.8597857 19.37975,11.8597857 19.696625,12.1801429 L20.215,12.7042143 C20.78375,11.8992143 21.125,10.9200714 21.125,9.85714286 C21.125,8.79421429 20.78375,7.81507143 20.215,7.01007143 L19.696625,7.53414286 Z" id="Combined-Shape" fill="#F3323D"></path>
                            </g>
                        </g>
                    </g>
                </g>
            </g>
        </g>
    </g>
</svg>