<?xml version="1.0" encoding="UTF-8"?>
<svg width="26px" height="26px" viewBox="0 0 26 26" version="1.1" xmlns="http://www.w3.org/2000/svg" xmlns:xlink="http://www.w3.org/1999/xlink">
    <!-- Generator: Sketch 52.3 (67297) - http://www.bohemiancoding.com/sketch -->
    <title>i-why-1</title>
    <desc>Created with Sketch.</desc>
    <g id="Page-1" stroke="none" stroke-width="1" fill="none" fill-rule="evenodd">
        <g id="Homepage" transform="translate(-1005.000000, -1404.000000)">
            <g id="Group-8" transform="translate(0.000000, 1080.000000)">
                <g id="Group-4" transform="translate(320.000000, 155.000000)">
                    <g id="2" transform="translate(663.000000, 145.000000)">
                        <g id="icon">
                            <g id="i-why-1" transform="translate(22.000000, 24.000000)">
                                <path d="M26,17.5 L26,2 C26,0.8954305 25.1045695,-8.6903994e-16 24,-6.66133815e-16 L2,0 C0.8954305,2.02906125e-16 -1.3527075e-16,0.8954305 0,2 L0,17.5 C1.3527075e-16,18.6045695 0.8954305,19.5 2,19.5 L24,19.5 C25.1045695,19.5 26,18.6045695 26,17.5 Z" id="Shape" fill="#FFFFFF" fill-rule="nonzero"></path>
                                <rect id="Rectangle-17" fill="#F3323D" x="4" y="5" width="12" height="2"></rect>
                                <rect id="Rectangle-17" fill="#F3323D" x="4" y="9" width="6" height="2"></rect>
                                <circle id="Oval" fill="#F8868C" cx="17.1" cy="15.6" r="5.2"></circle>
                                <path d="M17.055833,15.8747223 L17.7048711,15.5 L18.3539092,16.624167 L19.0048711,17 L18.7878838,17.375833 L22.9048711,24.5066642 L20.3067949,26.0066642 L17.055833,20.375833 L13.8048711,26.0066642 L11.2067949,24.5066642 L15.3237822,17.375833 L15.1067949,17 L15.7577568,16.624167 L16.4067949,15.5 L17.055833,15.8747223 Z" id="Combined-Shape" fill="#F8868C"></path>
                            </g>
                        </g>
                    </g>
                </g>
            </g>
        </g>
    </g>
</svg>