<?xml version="1.0" encoding="UTF-8"?>
<svg width="20px" height="26px" viewBox="0 0 20 26" version="1.1" xmlns="http://www.w3.org/2000/svg" xmlns:xlink="http://www.w3.org/1999/xlink">
    <!-- Generator: Sketch 52.3 (67297) - http://www.bohemiancoding.com/sketch -->
    <title>i-why-0</title>
    <desc>Created with Sketch.</desc>
    <g id="Page-1" stroke="none" stroke-width="1" fill="none" fill-rule="evenodd">
        <g id="Homepage" transform="translate(-345.000000, -1402.000000)" fill-rule="nonzero">
            <g id="Group-8" transform="translate(0.000000, 1080.000000)">
                <g id="Group-4" transform="translate(320.000000, 155.000000)">
                    <g id="1_2" transform="translate(0.000000, 145.000000)">
                        <g id="icon">
                            <g id="i-why-0" transform="translate(25.000000, 22.000000)">
                                <path d="M8.2509411,25.0441721 L9.22473142,25.736042 C9.43870709,25.8886351 9.72486865,25.8886351 9.93884431,25.736042 L10.915726,25.0441721 C12.7272852,23.7726274 14.5975808,22.438752 16.075269,21.0207304 C18.1897851,18.9856355 19.1666668,17.0783185 19.1666668,15.0182914 L19.1666668,7.43265458 C19.1672104,6.05640171 18.4179245,4.79105434 17.2159948,4.13848116 L11.3423389,0.947153267 C10.2442313,0.350948911 8.92243581,0.350948911 7.8243282,0.947153267 L1.95067233,4.13848116 C0.748742615,4.79105434 -0.000543290686,6.05640171 2.95566453e-07,7.43265458 L2.95566453e-07,15.0182914 C2.95566453e-07,17.0783185 0.986156203,18.9856355 3.09139812,21.0207304 C4.56908629,22.438752 6.44247337,23.7726274 8.2509411,25.0441721 Z" id="Shape" fill="#F8868C" opacity="0.800000012"></path>
                                <path d="M8.75,0.595523868 L8.75,25.3987493 L8.2509411,25.0441721 C6.44247337,23.7726274 4.56908629,22.438752 3.09139812,21.0207304 C0.986156203,18.9856355 2.95566451e-07,17.0783185 2.95566451e-07,15.0182914 L2.95566451e-07,7.43265458 C-0.000543290686,6.05640171 0.748742615,4.79105434 1.95067233,4.13848116 L7.8243282,0.947153267 C8.11961062,0.786833219 8.43106743,0.669623419 8.75,0.595523868 Z M19.1666667,7.42928556 C19.1666672,7.43040849 19.1666673,7.4315315 19.1666668,7.43265458 L19.1666668,15.0182914 C19.1666668,15.0187832 19.1666668,15.0192751 19.1666667,15.0197669 L19.1666667,7.42928556 Z" id="Combined-Shape" fill="#FFFFFF"></path>
                            </g>
                        </g>
                    </g>
                </g>
            </g>
        </g>
    </g>
</svg>